<mxfile host="65bd71144e">
    <diagram id="BK8NqhXYwdLLWIM6eWxT" name="Page-1">
        <mxGraphModel dx="1074" dy="782" grid="1" gridSize="10" guides="1" tooltips="1" connect="1" arrows="1" fold="1" page="1" pageScale="1" pageWidth="850" pageHeight="1100" math="0" shadow="0">
            <root>
                <mxCell id="0"/>
                <mxCell id="1" parent="0"/>
                <mxCell id="2" value="&lt;h1&gt;Arquitetura 01&lt;/h1&gt;&lt;p&gt;&lt;br&gt;&lt;/p&gt;&lt;p&gt;&lt;br&gt;&lt;/p&gt;" style="text;html=1;strokeColor=none;fillColor=none;spacing=5;spacingTop=-20;whiteSpace=wrap;overflow=hidden;rounded=0;" parent="1" vertex="1">
                    <mxGeometry x="10" y="10" width="190" height="50" as="geometry"/>
                </mxCell>
                <mxCell id="17" style="edgeStyle=none;html=1;exitX=1;exitY=0.5;exitDx=0;exitDy=0;exitPerimeter=0;entryX=1;entryY=0.5;entryDx=0;entryDy=0;entryPerimeter=0;" parent="1" source="8" target="8" edge="1">
                    <mxGeometry relative="1" as="geometry"/>
                </mxCell>
                <mxCell id="18" style="edgeStyle=none;html=1;exitX=1;exitY=0.5;exitDx=0;exitDy=0;exitPerimeter=0;strokeColor=none;startArrow=classic;startFill=1;" parent="1" source="8" target="16" edge="1">
                    <mxGeometry relative="1" as="geometry"/>
                </mxCell>
                <mxCell id="19" style="edgeStyle=none;html=1;exitX=1;exitY=0.5;exitDx=0;exitDy=0;exitPerimeter=0;startArrow=classic;startFill=1;" parent="1" source="8" target="16" edge="1">
                    <mxGeometry relative="1" as="geometry"/>
                </mxCell>
                <mxCell id="8" value="&lt;font color=&quot;#9933ff&quot; size=&quot;1&quot;&gt;&lt;b style=&quot;font-size: 15px&quot;&gt;Api Gateway&lt;/b&gt;&lt;/font&gt;" style="sketch=0;points=[[0,0,0],[0.25,0,0],[0.5,0,0],[0.75,0,0],[1,0,0],[0,1,0],[0.25,1,0],[0.5,1,0],[0.75,1,0],[1,1,0],[0,0.25,0],[0,0.5,0],[0,0.75,0],[1,0.25,0],[1,0.5,0],[1,0.75,0]];outlineConnect=0;fontColor=#232F3E;gradientColor=#FF4F8B;gradientDirection=north;fillColor=#BC1356;strokeColor=#ffffff;dashed=0;verticalLabelPosition=bottom;verticalAlign=top;align=center;html=1;fontSize=12;fontStyle=0;aspect=fixed;shape=mxgraph.aws4.resourceIcon;resIcon=mxgraph.aws4.api_gateway;" parent="1" vertex="1">
                    <mxGeometry x="172" y="179" width="78" height="78" as="geometry"/>
                </mxCell>
                <mxCell id="36" style="edgeStyle=none;html=1;startArrow=none;startFill=0;" parent="1" source="9" edge="1">
                    <mxGeometry relative="1" as="geometry">
                        <mxPoint x="170" y="190" as="targetPoint"/>
                    </mxGeometry>
                </mxCell>
                <mxCell id="9" value="Hospital A" style="outlineConnect=0;dashed=0;verticalLabelPosition=bottom;verticalAlign=top;align=center;html=1;shape=mxgraph.aws3.traditional_server;fillColor=#7D7C7C;gradientColor=none;labelBackgroundColor=none;fontSize=15;fontColor=#9933FF;" parent="1" vertex="1">
                    <mxGeometry x="30" y="100" width="46.5" height="63" as="geometry"/>
                </mxCell>
                <mxCell id="34" value="" style="edgeStyle=none;html=1;startArrow=none;startFill=0;" parent="1" source="10" target="8" edge="1">
                    <mxGeometry relative="1" as="geometry"/>
                </mxCell>
                <mxCell id="10" value="Hospital B" style="outlineConnect=0;dashed=0;verticalLabelPosition=bottom;verticalAlign=top;align=center;html=1;shape=mxgraph.aws3.traditional_server;fillColor=#7D7C7C;gradientColor=none;labelBackgroundColor=none;fontSize=15;fontColor=#9933FF;" parent="1" vertex="1">
                    <mxGeometry x="30" y="190.5" width="46.5" height="63" as="geometry"/>
                </mxCell>
                <mxCell id="35" style="edgeStyle=none;html=1;startArrow=none;startFill=0;" parent="1" source="11" edge="1">
                    <mxGeometry relative="1" as="geometry">
                        <mxPoint x="170" y="250" as="targetPoint"/>
                    </mxGeometry>
                </mxCell>
                <mxCell id="11" value="Hospital C" style="outlineConnect=0;dashed=0;verticalLabelPosition=bottom;verticalAlign=top;align=center;html=1;shape=mxgraph.aws3.traditional_server;fillColor=#7D7C7C;gradientColor=none;labelBackgroundColor=none;fontSize=15;fontColor=#9933FF;" parent="1" vertex="1">
                    <mxGeometry x="30" y="283.5" width="46.5" height="73" as="geometry"/>
                </mxCell>
                <mxCell id="25" style="edgeStyle=orthogonalEdgeStyle;html=1;startArrow=none;startFill=0;" parent="1" source="16" target="22" edge="1">
                    <mxGeometry relative="1" as="geometry"/>
                </mxCell>
                <mxCell id="16" value="" style="sketch=0;html=1;dashed=0;whitespace=wrap;fillColor=#2875E2;strokeColor=#ffffff;points=[[0.005,0.63,0],[0.1,0.2,0],[0.9,0.2,0],[0.5,0,0],[0.995,0.63,0],[0.72,0.99,0],[0.5,1,0],[0.28,0.99,0]];shape=mxgraph.kubernetes.icon;prIcon=api" parent="1" vertex="1">
                    <mxGeometry x="302" y="175.5" width="80" height="83" as="geometry"/>
                </mxCell>
                <mxCell id="32" value="" style="edgeStyle=none;html=1;" parent="1" source="22" target="26" edge="1">
                    <mxGeometry relative="1" as="geometry"/>
                </mxCell>
                <mxCell id="22" value="Fila" style="outlineConnect=0;dashed=0;verticalLabelPosition=bottom;verticalAlign=top;align=center;html=1;shape=mxgraph.aws3.queue;fillColor=#D9A741;gradientColor=none;" parent="1" vertex="1">
                    <mxGeometry x="437" y="193" width="73.5" height="48" as="geometry"/>
                </mxCell>
                <mxCell id="30" value="" style="edgeStyle=none;html=1;" parent="1" source="26" target="28" edge="1">
                    <mxGeometry relative="1" as="geometry"/>
                </mxCell>
                <mxCell id="26" value="RobÃ´s&lt;br&gt;Consumindo Fila" style="html=1;dashed=0;whitespace=wrap;" parent="1" vertex="1">
                    <mxGeometry x="552" y="193" width="100" height="50" as="geometry"/>
                </mxCell>
                <mxCell id="28" value="DB" style="shape=datastore;whiteSpace=wrap;html=1;" parent="1" vertex="1">
                    <mxGeometry x="722" y="187" width="60" height="60" as="geometry"/>
                </mxCell>
                <mxCell id="33" value="API Interna" style="text;html=1;strokeColor=none;fillColor=none;align=center;verticalAlign=middle;whiteSpace=wrap;rounded=0;" parent="1" vertex="1">
                    <mxGeometry x="310" y="258.5" width="70" height="30" as="geometry"/>
                </mxCell>
            </root>
        </mxGraphModel>
    </diagram>
</mxfile>